<svg width="311" height="252" viewBox="0 0 311 252" fill="none" xmlns="http://www.w3.org/2000/svg">
<path d="M8.21599 190.977C-9.7564 151.202 1.42299 106.074 45.0514 90.2223C78.5745 78.042 129.987 77.0216 151.381 39.6057C186.06 -21.0458 272.675 -14.2637 303.785 75.4188C332.092 157.023 273.301 286.695 193.788 242.091C127.53 204.922 116.87 246.242 73.7931 243.237C40.5732 240.919 14.2789 204.395 8.21599 190.977Z" fill="#F3F5FD"/>
<path d="M8.21599 190.977C-9.7564 151.202 1.42299 106.074 45.0514 90.2223C78.5745 78.042 129.987 77.0216 151.381 39.6057C186.06 -21.0458 272.675 -14.2637 303.785 75.4188C332.092 157.023 273.301 286.695 193.788 242.091C127.53 204.922 116.87 246.242 73.7931 243.237C40.5732 240.919 14.2789 204.395 8.21599 190.977Z" fill="#367CFF"/>
<g opacity="0.75">
<path d="M8.21599 190.977C-9.7564 151.202 1.42299 106.074 45.0514 90.2223C78.5745 78.042 129.987 77.0216 151.381 39.6057C186.06 -21.0458 272.675 -14.2637 303.785 75.4188C332.092 157.023 273.301 286.695 193.788 242.091C127.53 204.922 116.87 246.242 73.7931 243.237C40.5732 240.919 14.2789 204.395 8.21599 190.977Z" fill="#292A2E"/>
</g>
<g opacity="0.18">
<path d="M102.969 92.1451C103.681 92.1451 104.259 91.5148 104.259 90.7372C104.259 89.9597 103.681 89.3293 102.969 89.3293C102.257 89.3293 101.68 89.9597 101.68 90.7372C101.68 91.5148 102.257 92.1451 102.969 92.1451Z" fill="white"/>
<path d="M115.039 119.372C116.334 119.372 117.384 118.226 117.384 116.813C117.384 115.399 116.334 114.253 115.039 114.253C113.745 114.253 112.695 115.399 112.695 116.813C112.695 118.226 113.745 119.372 115.039 119.372Z" fill="white"/>
<path d="M189.149 47.9978C190.443 47.9978 191.493 46.8519 191.493 45.4384C191.493 44.0248 190.443 42.8789 189.149 42.8789C187.854 42.8789 186.805 44.0248 186.805 45.4384C186.805 46.8519 187.854 47.9978 189.149 47.9978Z" fill="white"/>
<path d="M114.841 190.589C115.511 190.589 116.054 189.996 116.054 189.264C116.054 188.532 115.511 187.939 114.841 187.939C114.17 187.939 113.627 188.532 113.627 189.264C113.627 189.996 114.17 190.589 114.841 190.589Z" fill="white"/>
<path d="M221.838 160.478C223.724 160.478 225.254 158.808 225.254 156.748C225.254 154.689 223.724 153.019 221.838 153.019C219.951 153.019 218.422 154.689 218.422 156.748C218.422 158.808 219.951 160.478 221.838 160.478Z" fill="white"/>
<path d="M101.066 224.376C102.117 224.376 102.968 223.446 102.968 222.299C102.968 221.152 102.117 220.222 101.066 220.222C100.016 220.222 99.1641 221.152 99.1641 222.299C99.1641 223.446 100.016 224.376 101.066 224.376Z" fill="white"/>
<path d="M247.262 34.7603C249.136 34.7603 250.656 33.1015 250.656 31.0554C250.656 29.0093 249.136 27.3506 247.262 27.3506C245.388 27.3506 243.869 29.0093 243.869 31.0554C243.869 33.1015 245.388 34.7603 247.262 34.7603Z" fill="white"/>
<path d="M225.277 100.219C226.227 100.219 226.996 99.3792 226.996 98.3428C226.996 97.3063 226.227 96.4661 225.277 96.4661C224.328 96.4661 223.559 97.3063 223.559 98.3428C223.559 99.3792 224.328 100.219 225.277 100.219Z" fill="white"/>
<path d="M17.4005 141.505C18.3498 141.505 19.1193 140.665 19.1193 139.628C19.1193 138.592 18.3498 137.752 17.4005 137.752C16.4512 137.752 15.6816 138.592 15.6816 139.628C15.6816 140.665 16.4512 141.505 17.4005 141.505Z" fill="white"/>
<path d="M164.954 142.493C166.201 142.493 167.213 141.389 167.213 140.027C167.213 138.665 166.201 137.561 164.954 137.561C163.707 137.561 162.695 138.665 162.695 140.027C162.695 141.389 163.707 142.493 164.954 142.493Z" fill="white"/>
<path d="M141.56 211.908C142.497 211.908 143.256 211.079 143.256 210.056C143.256 209.033 142.497 208.203 141.56 208.203C140.623 208.203 139.863 209.033 139.863 210.056C139.863 211.079 140.623 211.908 141.56 211.908Z" fill="white"/>
<path d="M258.803 113.904C260.774 113.904 262.372 112.159 262.372 110.007C262.372 107.855 260.774 106.111 258.803 106.111C256.832 106.111 255.234 107.855 255.234 110.007C255.234 112.159 256.832 113.904 258.803 113.904Z" fill="white"/>
<path d="M277.908 61.2623C279.067 61.2623 280.007 60.236 280.007 58.9701C280.007 57.7042 279.067 56.678 277.908 56.678C276.748 56.678 275.809 57.7042 275.809 58.9701C275.809 60.236 276.748 61.2623 277.908 61.2623Z" fill="white"/>
<path d="M160.413 190.91C161.673 190.91 162.695 189.794 162.695 188.418C162.695 187.042 161.673 185.927 160.413 185.927C159.153 185.927 158.131 187.042 158.131 188.418C158.131 189.794 159.153 190.91 160.413 190.91Z" fill="white"/>
<path d="M233.575 229.493C235.064 229.493 236.271 228.175 236.271 226.549C236.271 224.923 235.064 223.605 233.575 223.605C232.086 223.605 230.879 224.923 230.879 226.549C230.879 228.175 232.086 229.493 233.575 229.493Z" fill="white"/>
<path d="M288.958 155.839C290.832 155.839 292.351 154.181 292.351 152.135C292.351 150.088 290.832 148.43 288.958 148.43C287.084 148.43 285.564 150.088 285.564 152.135C285.564 154.181 287.084 155.839 288.958 155.839Z" fill="white"/>
<path d="M283.802 102.816C284.962 102.816 285.902 101.79 285.902 100.524C285.902 99.2584 284.962 98.2322 283.802 98.2322C282.643 98.2322 281.703 99.2584 281.703 100.524C281.703 101.79 282.643 102.816 283.802 102.816Z" fill="white"/>
<path d="M203.79 220.621C204.775 220.621 205.574 219.749 205.574 218.673C205.574 217.597 204.775 216.725 203.79 216.725C202.805 216.725 202.006 217.597 202.006 218.673C202.006 219.749 202.805 220.621 203.79 220.621Z" fill="white"/>
</g>
<path d="M231.279 77.3927C235.846 79.1072 240.504 80.5173 245.227 81.6152C243.09 83.9126 240.41 85.5158 237.486 86.2455C234.562 86.9751 231.511 86.8026 228.671 85.7471C225.832 84.6917 223.318 82.7949 221.41 80.2688C219.501 77.7427 218.274 74.6868 217.865 71.4429C222.222 73.721 226.702 75.7079 231.279 77.3927Z" fill="#0CBC8B"/>
<path d="M249.183 74.7299C248.577 76.6808 247.661 78.4998 246.478 80.1038C241.498 79.0138 236.592 77.5561 231.793 75.7406C226.975 73.981 222.272 71.8666 217.717 69.4119C217.675 67.3523 217.967 65.3008 218.577 63.3516C218.962 62.1183 219.469 60.9351 220.092 59.8234C220.395 59.2787 220.727 58.7529 221.085 58.2485C223.147 55.3364 225.991 53.2008 229.22 52.1404C232.448 51.08 235.899 51.1477 239.091 52.3342C242.282 53.5207 245.054 55.7666 247.019 58.7577C248.984 61.7489 250.044 65.3358 250.05 69.0168C250.051 69.6547 250.019 70.2922 249.955 70.9262C249.827 72.2213 249.568 73.4969 249.183 74.7299Z" fill="#0CBC8B"/>
<path d="M261.627 80.4522C260.63 83.6472 253.78 83.547 245.227 81.6155C245.671 81.1398 246.089 80.6352 246.478 80.1046C254.59 81.8163 259.622 81.467 260.114 79.89C260.595 78.3502 256.992 74.8552 249.955 70.9268C250.019 70.2927 250.051 69.6552 250.05 69.0173C257.496 73.066 262.591 77.3602 261.627 80.4522Z" fill="white"/>
<path d="M246.478 80.1046C246.089 80.6352 245.67 81.1398 245.226 81.6155C240.502 80.5176 235.845 79.1074 231.278 77.3929C226.7 75.7086 222.221 73.7221 217.864 71.4445C217.778 70.7714 217.728 70.0933 217.717 69.4138C222.272 71.8686 226.975 73.9831 231.793 75.7429C236.592 77.5579 241.498 79.0151 246.478 80.1046Z" fill="white"/>
<path d="M217.865 71.4443C210.009 67.2761 204.527 62.7911 205.523 59.5961C206.487 56.5041 212.928 56.4982 221.085 58.2502C220.728 58.7546 220.396 59.2804 220.092 59.8251C212.322 58.2495 207.515 58.6195 207.035 60.1582C206.544 61.7353 210.339 65.3667 217.718 69.4136C217.73 70.0931 217.779 70.7712 217.865 71.4443Z" fill="white"/>
<path d="M164.956 107.998C172.975 107.998 179.475 100.9 179.475 92.1454C179.475 83.3903 172.975 76.293 164.956 76.293C156.938 76.293 150.438 83.3903 150.438 92.1454C150.438 100.9 156.938 107.998 164.956 107.998Z" fill="#367CFF"/>
<g opacity="0.79">
<path d="M164.956 107.998C172.975 107.998 179.475 100.901 179.475 92.1456C179.475 83.3906 172.975 76.2932 164.956 76.2932C156.938 76.2932 150.438 83.3906 150.438 92.1456C150.438 100.901 156.938 107.998 164.956 107.998Z" fill="white"/>
</g>
<g opacity="0.18">
<path d="M172.847 88.9616C174.522 88.9616 175.88 87.4791 175.88 85.6505C175.88 83.8218 174.522 82.3394 172.847 82.3394C171.172 82.3394 169.814 83.8218 169.814 85.6505C169.814 87.4791 171.172 88.9616 172.847 88.9616Z" fill="#367CFF"/>
</g>
<g opacity="0.18">
<path d="M170.481 77.4834C170.464 77.818 170.379 78.1445 170.233 78.4392C170.087 78.734 169.882 78.9897 169.635 79.188C169.387 79.3863 169.103 79.5223 168.801 79.5862C168.5 79.6501 168.189 79.6404 167.892 79.5576C167.594 79.4749 167.317 79.3212 167.081 79.1076C166.844 78.8941 166.654 78.6259 166.523 78.3225C166.393 78.0191 166.325 77.6878 166.326 77.3526C166.327 77.0174 166.396 76.6865 166.527 76.3838C167.886 76.5428 169.218 76.9131 170.481 77.4834Z" fill="#367CFF"/>
</g>
<g opacity="0.18">
<path d="M159.872 96.0065C163.435 96.0065 166.324 92.8526 166.324 88.962C166.324 85.0714 163.435 81.9175 159.872 81.9175C156.309 81.9175 153.42 85.0714 153.42 88.962C153.42 92.8526 156.309 96.0065 159.872 96.0065Z" fill="#367CFF"/>
</g>
<path opacity="0.18" d="M175.665 102.848C174.244 104.552 172.497 105.893 170.548 106.775C170.268 106.412 170.06 105.989 169.937 105.533C169.815 105.077 169.781 104.598 169.837 104.127C169.893 103.655 170.038 103.202 170.263 102.795C170.488 102.388 170.788 102.037 171.145 101.764C171.501 101.491 171.905 101.301 172.332 101.208C172.758 101.114 173.198 101.118 173.623 101.22C174.049 101.322 174.45 101.52 174.801 101.8C175.153 102.08 175.447 102.437 175.665 102.848Z" fill="#367CFF"/>
<path d="M275.991 171.44C276.248 172.426 276.415 173.437 276.49 174.458C276.747 178.019 275.866 181.566 273.999 184.498C272.132 187.431 269.392 189.567 266.246 190.544C263.1 191.521 259.741 191.279 256.74 189.859C253.738 188.439 251.279 185.929 249.781 182.754C248.83 180.731 248.296 178.505 248.216 176.232C248.103 172.775 249.054 169.377 250.918 166.58C252.781 163.783 255.45 161.749 258.497 160.802C261.544 159.856 264.794 160.052 267.727 161.359C270.66 162.666 273.107 165.009 274.677 168.014C275.239 169.094 275.68 170.245 275.991 171.44Z" fill="#367CFF"/>
<g opacity="0.64">
<path d="M275.991 171.44C276.248 172.426 276.415 173.437 276.49 174.458C276.747 178.019 275.866 181.566 273.999 184.498C272.132 187.43 269.392 189.566 266.246 190.544C263.1 191.521 259.741 191.279 256.74 189.859C253.738 188.439 251.279 185.929 249.781 182.754C248.83 180.731 248.296 178.504 248.216 176.232C248.103 172.775 249.054 169.377 250.918 166.58C252.781 163.783 255.45 161.749 258.497 160.802C261.544 159.856 264.794 160.052 267.727 161.359C270.66 162.666 273.107 165.009 274.677 168.013C275.239 169.094 275.68 170.244 275.991 171.44Z" fill="white"/>
</g>
<g opacity="0.28">
<path d="M274.677 168.013L248.217 176.234C248.141 174.031 248.502 171.836 249.274 169.799L270.676 163.15C272.315 164.438 273.679 166.097 274.677 168.013Z" fill="white"/>
</g>
<g opacity="0.28">
<path d="M276.491 174.458C276.647 176.607 276.388 178.768 275.732 180.801L253.484 187.711C251.946 186.36 250.684 184.671 249.781 182.754L276.491 174.458Z" fill="white"/>
</g>
<path d="M98.3452 122.336C98.2528 122.322 97.2283 140.883 77.4794 139.265C63.8072 138.147 58.9324 122.309 58.6191 122.309C60.0935 121.967 61.9152 121.448 62.6389 121.27C65.0443 120.678 68.0469 118.511 68.7407 113.946C69.1407 111.315 68.4624 97.8554 68.6709 95.1936L89.6576 100.308C89.3642 105.93 87.3119 118.963 94.5052 121.27C95.7023 121.651 96.9914 122.002 98.3452 122.336Z" fill="#E98862"/>
<path opacity="0.52" d="M89.9517 115.944C89.6232 114.787 89.4116 113.594 89.3207 112.387C89.09 109.633 89.1361 106.859 89.458 104.116C85.1924 103.487 81.1739 101.565 77.859 98.5671C77.4693 100.139 75.3261 107.005 75.9196 108.498C77.0409 111.321 82.3116 115.944 89.9517 115.944Z" fill="#0C0C0C"/>
<path d="M96.5174 74.9418C96.5174 74.9418 101.34 68.6661 100.453 57.2316C99.7667 48.3786 93.695 55.7504 93.695 55.7504C93.695 55.7504 93.1438 49.381 89.1518 51.031C85.1598 52.6811 84.2148 59.7535 84.2148 59.7535" fill="#0C0C0C"/>
<path d="M67.9823 57.1089C67.9823 57.1089 48.0226 64.645 61.8004 93.0642L63.6391 92.7418L67.3715 92.0873" fill="#0C0C0C"/>
<path d="M87.1645 109.658C78.93 110.895 68.0992 107.755 65.4402 95.8314L63.0408 85.0728C60.3818 73.1491 63.9618 61.9585 74.2442 59.2247C84.5263 56.4909 94.3673 64.1138 97.0264 76.0372L98.0887 80.8002C98.4273 82.4426 98.663 84.1082 98.7941 85.7855C99.1708 90.2158 99.7277 96.9555 97.9874 102.046C96.3443 106.853 92.4258 108.868 87.1645 109.658Z" fill="#E98862"/>
<path opacity="0.52" d="M88.6051 97.7873C90.2875 97.4513 91.8741 96.6883 93.2369 95.56C93.2942 95.5143 93.3324 95.4456 93.3433 95.3691C93.3542 95.2927 93.3368 95.2146 93.295 95.1521C93.2531 95.0896 93.1903 95.0478 93.1202 95.0359C93.0502 95.024 92.9787 95.043 92.9214 95.0887C89.9677 97.4363 86.9468 97.9599 84.1859 96.6044C84.1298 96.5752 84.0725 96.5492 84.0139 96.5266C83.9466 96.5057 83.8744 96.5146 83.8129 96.5512C83.7514 96.5879 83.7056 96.6495 83.6853 96.7227C83.665 96.7959 83.6718 96.8749 83.7043 96.9426C83.7368 97.0104 83.7924 97.0615 83.859 97.0849C83.8805 97.0932 83.9165 97.1115 83.9666 97.1363C85.4189 97.8526 87.034 98.0793 88.6051 97.7873Z" fill="#0C0C0C"/>
<path opacity="0.52" d="M89.095 100.501C89.4001 100.446 89.7003 100.362 89.9923 100.251C90.0562 100.223 90.1079 100.17 90.1366 100.101C90.1653 100.033 90.1688 99.9554 90.1464 99.8845C90.124 99.8135 90.0775 99.7547 90.0164 99.7202C89.9553 99.6858 89.8844 99.6784 89.8184 99.6995C88.0602 100.362 87.0105 99.6761 86.966 99.6465C86.9061 99.6084 86.835 99.5973 86.7677 99.6154C86.7004 99.6335 86.6422 99.6795 86.6053 99.7436C86.5685 99.8077 86.5559 99.8849 86.5702 99.959C86.5845 100.033 86.6246 100.098 86.6821 100.14C87.4241 100.561 88.2767 100.689 89.095 100.501Z" fill="#0C0C0C"/>
<path d="M95.274 82.0121C95.9938 82.0121 96.5774 81.375 96.5774 80.589C96.5774 79.8031 95.9938 79.166 95.274 79.166C94.5542 79.166 93.9707 79.8031 93.9707 80.589C93.9707 81.375 94.5542 82.0121 95.274 82.0121Z" fill="#0C0C0C"/>
<path d="M82.8834 85.2032C83.6032 85.2032 84.1867 84.5661 84.1867 83.7802C84.1867 82.9943 83.6032 82.3572 82.8834 82.3572C82.1636 82.3572 81.5801 82.9943 81.5801 83.7802C81.5801 84.5661 82.1636 85.2032 82.8834 85.2032Z" fill="#0C0C0C"/>
<path d="M66.8885 99.2939C63.7651 100.124 60.4167 97.1482 59.6557 93.7365C58.8947 90.3248 61.0086 87.7698 64.1333 86.939L66.254 88.7971L69.5759 98.5802L66.8885 99.2939Z" fill="#E98862"/>
<path d="M68.8495 93.0125C68.8495 93.0125 66.3423 75.8252 70.8214 73.5999C73.8044 72.1186 82.4157 75.0584 89.1374 71.8286C92.0781 70.4162 95.1732 70.5134 95.8042 72.0249C96.0544 72.6236 96.0686 63.1168 89.8097 57.4767C84.8248 52.9865 71.9525 54.5986 66.6205 57.8212C51.8552 66.7431 63.6473 87.8467 63.6473 87.8467L65.5816 93.5033L68.8495 93.0125Z" fill="#0C0C0C"/>
<g opacity="0.52">
<path d="M89.6597 93.3182L89.6799 93.3137C90.6873 93.0491 92.3503 92.4821 92.1698 91.6602C92.019 90.9785 88.6867 84.0669 88.3068 83.2812C88.2731 83.2156 88.2173 83.1671 88.1513 83.1458C88.0852 83.1245 88.0142 83.1323 87.9533 83.1674C87.8924 83.2024 87.8465 83.2621 87.8253 83.3336C87.8041 83.4051 87.8094 83.4828 87.8399 83.5502C89.3183 86.6105 91.5539 91.3319 91.6574 91.7952C91.6013 92.0157 90.6008 92.4804 89.5575 92.7546C89.4915 92.7724 89.4343 92.8173 89.3979 92.8799C89.3614 92.9426 89.3485 93.0181 89.3618 93.0909C89.3751 93.1637 89.4136 93.228 89.4692 93.2706C89.5249 93.3132 89.5934 93.3307 89.6606 93.3195L89.6597 93.3182Z" fill="#0C0C0C"/>
</g>
<path d="M91.1934 78.1574C91.9091 77.5577 92.7569 77.1747 93.6514 77.0468C94.1063 76.9776 94.5682 76.9841 95.0213 77.0661C95.4832 77.1474 95.9339 77.2916 96.3628 77.4953L96.3963 77.5098C96.5058 77.5579 96.6283 77.5578 96.7378 77.5094C96.8473 77.461 96.9353 77.3682 96.9834 77.2504C97.0314 77.1326 97.0358 76.999 96.9955 76.8778C96.9552 76.7565 96.8734 76.6571 96.7673 76.6004C96.2785 76.3184 95.7591 76.1048 95.2214 75.9648C94.6744 75.8204 94.1108 75.7664 93.5492 75.8046C92.9859 75.8364 92.4292 75.9523 91.8947 76.1491C91.343 76.3456 90.8198 76.6271 90.3409 76.9851C90.1908 77.0976 90.0878 77.2706 90.0545 77.4659C90.0213 77.6613 90.0604 77.8631 90.1634 78.027C90.2664 78.1909 90.4248 78.3033 90.6038 78.3397C90.7827 78.376 90.9676 78.3332 91.1177 78.2208C91.1319 78.2101 91.1457 78.1987 91.1593 78.1863L91.1934 78.1574Z" fill="#0C0C0C"/>
<path d="M83.4647 78.6727C82.8935 78.5604 82.3106 78.5377 81.7335 78.6055C81.172 78.6648 80.6206 78.8081 80.0948 79.0313C79.5687 79.2477 79.0754 79.549 78.6312 79.9252C78.1928 80.2934 77.7988 80.7207 77.4588 81.197C77.3834 81.2961 77.3461 81.4232 77.3547 81.5516C77.3633 81.6801 77.4171 81.7999 77.5049 81.8859C77.5926 81.972 77.7075 82.0176 77.8254 82.0132C77.9433 82.0088 78.055 81.9546 78.1371 81.8622L78.1637 81.8323C78.4783 81.4545 78.8352 81.1214 79.2259 80.8409C79.6084 80.563 80.0273 80.3502 80.4684 80.2098C81.3322 79.9261 82.2492 79.8961 83.1271 80.1226L83.1678 80.1343C83.3438 80.1849 83.531 80.1571 83.6882 80.0569C83.8454 79.9568 83.9597 79.7926 84.0061 79.6004C84.0524 79.4082 84.0269 79.2038 83.9352 79.0322C83.8434 78.8605 83.693 78.7357 83.517 78.6851C83.5 78.6803 83.4811 78.6779 83.4647 78.6727Z" fill="#0C0C0C"/>
<path d="M85.6644 64.6969C87.8725 63.5851 88.4474 59.807 86.9485 56.2583C85.4496 52.7096 82.4445 50.7341 80.2364 51.846C78.0283 52.9578 77.4534 56.7359 78.9523 60.2846C80.4512 63.8333 83.4563 65.8088 85.6644 64.6969Z" fill="#0C0C0C"/>
<path d="M117.337 125.486C113.118 122.758 97.5233 121.27 94.504 121.27C94.4125 121.27 95.6556 135.61 77.0285 134.653C63.3422 133.946 62.768 121.27 62.768 121.27C62.768 121.27 55.9911 121.749 51.4826 122.413C44.1031 123.505 37.2536 128.239 33.1048 136.117C28.9465 144.012 30.2022 149.286 31.8869 165.828C33.4234 180.909 35.206 212.204 35.9474 225.921C36.8182 226.662 37.7037 227.389 38.6039 228.102C39.1567 228.54 39.7152 228.971 40.2795 229.397C40.3205 229.428 40.3609 229.46 40.4023 229.491C40.9567 229.909 41.5165 230.321 42.0817 230.726C42.1091 230.745 42.1356 230.766 42.1627 230.785C51.4898 237.471 62.2206 242.433 73.7931 243.238C92.3981 244.537 104.955 237.565 118.556 232.222C118.528 231.288 118.512 230.789 118.512 230.789L118.409 230.785H118.635C119.231 220.958 121.291 171.177 121.916 163.199C123.236 146.289 128.83 132.92 117.337 125.486Z" fill="#CAA033"/>
<path d="M193.902 144.659C194.021 144.301 194.206 143.972 194.445 143.695C194.684 143.417 194.972 143.195 195.292 143.043C195.613 142.891 195.958 142.811 196.307 142.81C196.656 142.808 197.002 142.884 197.323 143.033C197.936 143.346 198.418 143.9 198.67 144.585C198.923 145.27 198.928 146.034 198.685 146.723L197.502 150.285L204.939 142.006C205.864 140.946 207.619 140.291 208.639 141.501C209.523 142.42 211.566 142.703 211.898 144.426C211.909 144.435 211.888 160.199 211.031 161.181C207.394 165.352 198.601 166.159 193.695 164.041L185.975 160.707L193.902 144.659Z" fill="#E98862"/>
<g opacity="0.1">
<path d="M193.902 144.659C194.021 144.3 194.206 143.972 194.445 143.694C194.684 143.416 194.972 143.195 195.292 143.043C195.613 142.89 195.958 142.811 196.307 142.81C196.656 142.808 197.002 142.884 197.323 143.033C197.936 143.345 198.418 143.9 198.67 144.585C198.923 145.27 198.928 146.034 198.685 146.722L197.502 150.285L204.939 142.006C205.864 140.946 207.619 140.291 208.639 141.501C209.523 142.42 211.566 142.703 211.898 144.425C211.909 144.434 211.888 160.198 211.031 161.181C207.394 165.352 198.601 166.159 193.695 164.04L185.975 160.707L193.902 144.659Z" fill="#0C0C0C"/>
</g>
<path d="M223.557 130.712C223.557 130.241 223.468 129.775 223.294 129.343C223.121 128.912 222.867 128.525 222.549 128.206C222.231 127.888 221.856 127.644 221.448 127.492C221.04 127.34 220.607 127.282 220.177 127.322L205.156 128.723C203.815 128.848 202.566 129.518 201.656 130.6C200.745 131.682 200.24 133.098 200.24 134.567V162.523C200.24 163.425 200.568 164.29 201.153 164.928C201.737 165.566 202.529 165.925 203.355 165.925C203.765 165.925 204.17 165.837 204.548 165.666C204.926 165.495 205.269 165.244 205.558 164.928C205.848 164.612 206.077 164.237 206.234 163.825C206.39 163.412 206.471 162.97 206.471 162.523V140.72C206.471 140.237 206.565 139.759 206.747 139.319C206.93 138.878 207.196 138.486 207.528 138.166C207.86 137.847 208.251 137.609 208.674 137.468C209.097 137.326 209.543 137.285 209.982 137.346L220.046 138.753C220.485 138.814 220.931 138.773 221.354 138.631C221.777 138.49 222.168 138.251 222.5 137.932C222.833 137.613 223.099 137.22 223.281 136.78C223.463 136.339 223.557 135.861 223.557 135.378V130.712Z" fill="#F2F2F2"/>
<path d="M203.355 166.269C202.445 166.268 201.573 165.873 200.93 165.171C200.287 164.468 199.925 163.516 199.924 162.523V134.568C199.916 133.009 200.448 131.505 201.414 130.357C202.379 129.21 203.707 128.503 205.13 128.379L220.151 126.979C220.624 126.935 221.101 126.999 221.551 127.166C222.001 127.334 222.413 127.602 222.763 127.952C223.113 128.303 223.393 128.73 223.584 129.205C223.775 129.68 223.874 130.193 223.874 130.712V135.378C223.874 135.911 223.77 136.437 223.569 136.922C223.369 137.406 223.076 137.839 222.71 138.191C222.344 138.542 221.914 138.805 221.447 138.96C220.981 139.116 220.49 139.162 220.007 139.094L209.943 137.687C209.548 137.632 209.148 137.669 208.768 137.796C208.387 137.924 208.036 138.138 207.738 138.424C207.439 138.711 207.2 139.064 207.037 139.46C206.873 139.855 206.788 140.284 206.788 140.718V162.523C206.786 163.517 206.424 164.469 205.781 165.171C205.137 165.874 204.265 166.268 203.355 166.269ZM220.449 127.653C220.368 127.653 220.286 127.657 220.203 127.665L205.182 129.065C203.917 129.175 202.737 129.804 201.879 130.824C201.021 131.844 200.548 133.181 200.555 134.567V162.523C200.563 163.328 200.861 164.098 201.385 164.664C201.91 165.23 202.617 165.548 203.355 165.548C204.092 165.548 204.8 165.23 205.324 164.664C205.848 164.098 206.147 163.328 206.155 162.523V140.72C206.155 140.188 206.258 139.662 206.459 139.177C206.66 138.692 206.953 138.259 207.319 137.908C207.685 137.556 208.115 137.294 208.581 137.138C209.047 136.982 209.538 136.937 210.021 137.004L220.086 138.412C220.48 138.466 220.88 138.429 221.261 138.302C221.641 138.175 221.992 137.961 222.29 137.674C222.589 137.387 222.828 137.034 222.992 136.639C223.155 136.243 223.24 135.814 223.241 135.38V130.712C223.241 129.903 222.947 129.126 222.423 128.553C221.9 127.98 221.19 127.657 220.449 127.654L220.449 127.653Z" fill="#0C0C0C"/>
<path d="M201.186 154.516C201.311 154.034 201.576 153.61 201.942 153.308C202.308 153.006 202.754 152.843 203.213 152.843C203.207 152.804 203.167 152.711 203.231 152.704L201.651 151.866C201.181 151.63 200.805 151.217 200.592 150.701C200.379 150.186 200.344 149.605 200.494 149.064C200.657 148.535 200.995 148.091 201.441 147.819C201.888 147.546 202.411 147.464 202.909 147.589C202.902 147.568 202.912 147.544 202.912 147.522L202.263 147.177C201.82 146.953 201.463 146.569 201.25 146.09C201.037 145.611 200.983 145.066 201.095 144.548C201.172 144.225 201.314 143.924 201.51 143.668C201.706 143.412 201.952 143.206 202.229 143.066C202.507 142.926 202.81 142.855 203.116 142.858C203.421 142.861 203.723 142.939 203.998 143.084L205.496 143.879C205.499 143.869 205.493 143.86 205.496 143.851C205.499 143.842 205.514 143.836 205.52 143.826C205.155 143.507 204.9 143.062 204.797 142.564C204.693 142.066 204.748 141.544 204.952 141.084C205.408 139.86 206.898 139.814 207.866 140.327L210.803 142.203C211.256 142.493 211.636 142.901 211.91 143.39C212.184 143.879 212.343 144.434 212.373 145.007C212.635 149.96 213.035 162.913 209.944 161.274L202.333 157.239C201.892 156.989 201.54 156.585 201.332 156.092C201.124 155.599 201.073 155.045 201.186 154.516Z" fill="#E98862"/>
<path d="M188.219 147.729L149.638 181.395L123.261 132.175L97.2402 148.798L132.418 214.44L132.683 214.94C133.795 216.985 135.309 218.735 137.115 220.063C138.922 221.391 140.976 222.265 143.129 222.622C145.282 222.979 147.481 222.809 149.567 222.126C151.653 221.442 153.574 220.261 155.191 218.669L204.563 170.626L188.219 147.729Z" fill="#CAA033"/>
<path d="M152.862 159.764C152.862 159.293 152.772 158.827 152.599 158.396C152.425 157.965 152.172 157.577 151.854 157.259C151.536 156.94 151.161 156.697 150.753 156.545C150.344 156.393 149.911 156.335 149.482 156.375L134.46 157.775C133.12 157.9 131.87 158.57 130.96 159.652C130.05 160.735 129.545 162.15 129.545 163.62V191.575C129.545 192.477 129.873 193.342 130.457 193.98C131.042 194.618 131.834 194.977 132.66 194.977C133.069 194.977 133.474 194.889 133.852 194.718C134.23 194.547 134.574 194.296 134.863 193.98C135.152 193.665 135.382 193.29 135.538 192.877C135.695 192.464 135.775 192.022 135.775 191.575V169.772C135.775 169.289 135.87 168.811 136.052 168.371C136.234 167.931 136.5 167.538 136.833 167.219C137.165 166.9 137.556 166.661 137.979 166.52C138.402 166.378 138.848 166.337 139.287 166.398L149.351 167.805C149.79 167.867 150.236 167.825 150.659 167.684C151.082 167.542 151.473 167.304 151.805 166.985C152.137 166.665 152.403 166.273 152.585 165.832C152.768 165.392 152.862 164.915 152.862 164.431V159.764Z" fill="#F2F2F2"/>
<path d="M132.66 195.322C131.751 195.321 130.878 194.926 130.235 194.224C129.592 193.521 129.23 192.569 129.229 191.576V163.62C129.221 162.062 129.753 160.558 130.719 159.41C131.684 158.262 133.012 157.556 134.434 157.432L149.456 156.032C149.929 155.988 150.406 156.052 150.855 156.219C151.305 156.387 151.718 156.654 152.068 157.005C152.418 157.356 152.697 157.783 152.889 158.258C153.08 158.733 153.178 159.246 153.178 159.765V164.432C153.178 164.964 153.075 165.49 152.874 165.975C152.673 166.46 152.38 166.892 152.014 167.244C151.649 167.595 151.218 167.858 150.752 168.013C150.286 168.169 149.795 168.215 149.312 168.147L139.248 166.74C138.853 166.685 138.453 166.722 138.072 166.849C137.692 166.977 137.341 167.191 137.043 167.477C136.744 167.764 136.505 168.117 136.341 168.513C136.177 168.908 136.093 169.337 136.093 169.772V191.575C136.092 192.568 135.73 193.521 135.086 194.223C134.443 194.926 133.57 195.321 132.66 195.322ZM149.755 156.706C149.673 156.706 149.591 156.71 149.509 156.718L134.487 158.118C133.222 158.228 132.042 158.856 131.184 159.877C130.325 160.897 129.852 162.235 129.86 163.62V191.576C129.867 192.381 130.166 193.15 130.69 193.717C131.214 194.283 131.922 194.601 132.659 194.601C133.397 194.601 134.105 194.283 134.629 193.717C135.153 193.15 135.452 192.381 135.459 191.576V169.773C135.459 169.24 135.563 168.714 135.764 168.23C135.965 167.745 136.258 167.312 136.624 166.961C136.989 166.609 137.42 166.347 137.886 166.191C138.352 166.035 138.843 165.989 139.326 166.057L149.391 167.464C149.785 167.519 150.186 167.482 150.566 167.355C150.946 167.227 151.297 167.013 151.595 166.727C151.894 166.44 152.133 166.087 152.297 165.691C152.461 165.296 152.545 164.867 152.546 164.433V159.765C152.546 158.955 152.252 158.179 151.728 157.606C151.205 157.033 150.495 156.709 149.754 156.707L149.755 156.706Z" fill="#0C0C0C"/>
<path d="M125.644 168.307C125.756 167.969 125.93 167.66 126.155 167.399C126.38 167.138 126.651 166.929 126.952 166.786C127.254 166.642 127.579 166.568 127.907 166.566C128.236 166.565 128.561 166.636 128.864 166.776C129.441 167.07 129.894 167.592 130.132 168.237C130.369 168.881 130.374 169.6 130.145 170.249L129.493 172.209L134.742 168.943C135.953 168.022 137.724 167.646 138.875 168.352C140.082 169.092 140.979 170.811 141.291 172.432C141.302 172.44 142.164 179.765 140.663 183.45C138.646 188.403 129.427 192.763 124.811 190.769L117.545 187.633L125.644 168.307Z" fill="#E98862"/>
<path d="M121.155 180.034H121.146C121.11 180.033 121.074 180.024 121.042 180.008C121.009 179.991 120.979 179.968 120.954 179.939C120.93 179.911 120.911 179.877 120.898 179.84C120.885 179.803 120.88 179.764 120.881 179.724L121.429 161.406C121.433 161.327 121.465 161.253 121.518 161.199C121.571 161.145 121.641 161.116 121.713 161.117C121.749 161.118 121.785 161.127 121.817 161.144C121.85 161.16 121.88 161.183 121.905 161.212C121.929 161.241 121.948 161.274 121.961 161.311C121.974 161.348 121.979 161.388 121.978 161.427L121.43 179.745C121.428 179.823 121.398 179.896 121.346 179.95C121.295 180.004 121.226 180.034 121.155 180.034Z" fill="#0C0C0C"/>
<path d="M122.738 169.934L77.3487 184.609L61.8577 139.962L31.6348 153.271L54.2302 210.878L54.5406 211.67C56.0145 215.396 58.733 218.369 62.1431 219.984C65.5532 221.599 69.3987 221.735 72.8973 220.364L131.027 197.593L122.738 169.934Z" fill="#CAA033"/>
<path d="M67.9793 221.601C65.0697 221.602 62.2234 220.674 59.7911 218.93C57.3588 217.187 55.4468 214.704 54.2908 211.789L53.9803 210.997L33.8606 165.301C33.8309 165.23 33.8279 165.149 33.8523 165.075C33.8768 165.001 33.9266 164.941 33.9913 164.907C34.0559 164.873 34.1302 164.868 34.1981 164.893C34.2661 164.918 34.3223 164.972 34.3547 165.042L54.4791 210.75L54.7946 211.555C56.2442 215.207 58.9121 218.121 62.257 219.706C65.602 221.29 69.3735 221.426 72.8068 220.085L130.683 197.411L122.561 170.305L77.4276 184.897C77.3634 184.918 77.2947 184.912 77.2341 184.881C77.1736 184.851 77.1254 184.797 77.0985 184.73L64.4893 153.13C64.462 153.057 64.4619 152.976 64.4888 152.903C64.5157 152.831 64.5676 152.773 64.6334 152.741C64.6991 152.71 64.7735 152.708 64.8405 152.736C64.9075 152.764 64.9618 152.819 64.9918 152.891L77.503 184.249L122.659 169.648C122.728 169.625 122.802 169.633 122.865 169.669C122.928 169.706 122.976 169.767 122.998 169.842L131.286 197.5C131.308 197.575 131.303 197.655 131.272 197.725C131.241 197.795 131.185 197.849 131.118 197.875L72.992 220.647C71.3839 221.278 69.6881 221.601 67.9793 221.601Z" fill="#0C0C0C"/>
<path d="M69.5764 187.562C69.5103 187.563 69.4461 187.538 69.3956 187.491C69.3452 187.445 69.3119 187.38 69.302 187.308C69.292 187.237 69.306 187.164 69.3415 187.103C69.3769 187.042 69.4313 186.997 69.4947 186.977L77.2673 184.324C77.3359 184.303 77.4092 184.313 77.4716 184.35C77.5341 184.387 77.5808 184.449 77.602 184.523C77.6232 184.597 77.6172 184.678 77.5853 184.747C77.5533 184.816 77.4979 184.87 77.4308 184.895L69.6578 187.548C69.6315 187.557 69.6041 187.562 69.5764 187.562Z" fill="#0C0C0C"/>
<path d="M77.2865 85.3513L62.4641 87.3758C62.2756 87.4015 62.0843 87.3865 61.9011 87.3315C61.7179 87.2765 61.5464 87.1827 61.3964 87.0553C61.2464 86.928 61.1209 86.7696 61.027 86.5893C60.9331 86.409 60.8726 86.2102 60.8491 86.0044C60.8015 85.5887 60.9071 85.1694 61.1426 84.8388C61.3782 84.5081 61.7244 84.2931 62.1051 84.241L76.9275 82.2166L77.2865 85.3513Z" fill="#F2F2F2"/>
<path d="M62.2827 87.7324C61.8344 87.7321 61.403 87.5453 61.0764 87.21C60.7498 86.8746 60.5526 86.416 60.5249 85.9274C60.4971 85.4388 60.641 84.9571 60.9272 84.5803C61.2135 84.2035 61.6204 83.96 62.0653 83.8994L76.8878 81.8749C76.9288 81.8688 76.9706 81.8718 77.0106 81.8836C77.0506 81.8954 77.088 81.9159 77.1206 81.9438C77.1533 81.9715 77.1807 82.0061 77.2013 82.0454C77.2218 82.0847 77.235 82.128 77.2402 82.1729L77.5992 85.3076C77.6096 85.3982 77.5865 85.4896 77.5352 85.5617C77.4838 85.6338 77.4084 85.6807 77.3254 85.692L62.5026 87.7165C62.4297 87.7267 62.3562 87.732 62.2827 87.7324ZM76.653 82.5997L62.1436 84.5818C61.8459 84.6225 61.5752 84.7906 61.391 85.0491C61.2069 85.3077 61.1243 85.6356 61.1616 85.9606C61.1988 86.2856 61.3528 86.5811 61.5896 86.7822C61.8264 86.9833 62.1267 87.0734 62.4244 87.0328L76.9338 85.051L76.653 82.5997Z" fill="#0C0C0C"/>
<path d="M102.431 83.519L101.634 76.5533C101.497 75.3654 100.935 74.2851 100.069 73.5502C99.2033 72.8152 98.1058 72.4858 97.0178 72.6342L76.5873 75.4245C76.428 75.447 76.2699 75.4797 76.1141 75.5223L73.0998 75.934C72.561 76.0074 72.0407 76.196 71.5687 76.489C71.0966 76.7821 70.6821 77.1738 70.3488 77.6418C70.0155 78.1098 69.7699 78.645 69.6261 79.2167C69.4823 79.7884 69.4431 80.3854 69.5107 80.9736L70.3086 87.9393C70.3758 88.5276 70.5486 89.0957 70.8169 89.611C71.0853 90.1264 71.4441 90.579 71.8728 90.9429C72.3014 91.3068 72.7915 91.575 73.3151 91.732C73.8387 91.889 74.3855 91.9318 74.9243 91.858L95.3544 89.0678C95.5138 89.0451 95.6718 89.0125 95.8277 88.97L98.8417 88.5566C99.3803 88.4833 99.9005 88.2948 100.372 88.0019C100.844 87.709 101.259 87.3175 101.592 86.8497C101.926 86.3819 102.171 85.847 102.315 85.2755C102.459 84.704 102.499 84.1071 102.431 83.519Z" fill="#F2F2F2"/>
<path d="M74.4073 92.238C73.3236 92.2357 72.2779 91.8024 71.4657 91.0191C70.6535 90.2358 70.1306 89.1562 69.9947 87.9824L69.1965 81.0167C69.0501 79.7381 69.3749 78.4484 70.0994 77.4312C70.8239 76.414 71.8887 75.7527 73.0598 75.5926L76.057 75.1834C76.2187 75.1397 76.3826 75.1062 76.5479 75.0831L96.9784 72.2929C97.5583 72.2135 98.1468 72.2596 98.7103 72.4287C99.2739 72.5977 99.8014 72.8863 100.263 73.278C100.724 73.6698 101.11 74.1569 101.399 74.7116C101.688 75.2663 101.874 75.8778 101.946 76.511L102.744 83.4763C102.817 84.1094 102.775 84.7521 102.62 85.3674C102.465 85.9828 102.201 86.5588 101.842 87.0625C101.483 87.5663 101.037 87.9879 100.529 88.3033C100.021 88.6187 99.4608 88.8217 98.8808 88.9007L95.8836 89.31C95.7217 89.3532 95.5579 89.3866 95.3927 89.4102L74.9622 92.2005C74.7781 92.2255 74.5928 92.2381 74.4073 92.238ZM97.5374 72.9432C97.3763 72.9439 97.2155 72.9554 97.0557 72.9777L76.6252 75.7679C76.4781 75.7889 76.3322 75.8192 76.1882 75.8585C76.1764 75.8618 76.1644 75.8642 76.1523 75.8658L73.138 76.2774C72.1335 76.4159 71.2202 76.9838 70.5987 77.8565C69.9772 78.7293 69.6981 79.8356 69.8227 80.9327L70.6206 87.8983C70.7475 88.9951 71.2677 89.9921 72.067 90.6707C72.8663 91.3493 73.8795 91.654 74.8843 91.5181L95.3147 88.7278C95.462 88.7068 95.608 88.6766 95.752 88.6372C95.7639 88.6341 95.7759 88.6316 95.788 88.63L98.8016 88.2183C99.8062 88.0799 100.72 87.5121 101.341 86.6393C101.963 85.7666 102.242 84.6602 102.117 83.5631L101.319 76.5978C101.203 75.5911 100.756 74.665 100.059 73.9929C99.3633 73.3208 98.4667 72.9487 97.5374 72.9463V72.9432Z" fill="#0C0C0C"/>
<path d="M100.693 72.167L80.2628 74.9573C77.997 75.2667 76.3899 77.5231 76.6733 79.997L77.4714 86.9625C77.7548 89.4364 79.8214 91.191 82.0872 90.8816L102.517 88.0913C104.783 87.7819 106.39 85.5255 106.107 83.0516L105.309 76.0861C105.025 73.6122 102.959 71.8575 100.693 72.167Z" fill="#F2F2F2"/>
<path d="M81.5654 91.261C80.4823 91.2583 79.4374 90.8246 78.6262 90.041C77.815 89.2575 77.2933 88.178 77.1588 87.0046L76.3609 80.039C76.288 79.4057 76.3301 78.763 76.4848 78.1476C76.6396 77.5321 76.9038 76.956 77.2626 76.4521C77.6214 75.9483 78.0675 75.5265 78.5757 75.211C79.0838 74.8956 79.6438 74.6925 80.2239 74.6135L100.654 71.8232C101.825 71.665 103.006 72.0202 103.937 72.811C104.868 73.6017 105.474 74.7634 105.622 76.0413L106.42 83.007C106.565 84.2853 106.24 85.5744 105.516 86.5912C104.792 87.6081 103.728 88.2698 102.557 88.4311L82.1267 91.2213C81.9405 91.2472 81.753 91.2604 81.5654 91.261ZM101.209 72.4753C101.05 72.4753 100.891 72.4863 100.733 72.508L80.3021 75.2983C79.8045 75.3661 79.3239 75.5403 78.8879 75.8109C78.452 76.0816 78.0691 76.4433 77.7612 76.8756C77.4533 77.3078 77.2265 77.8021 77.0936 78.3301C76.9608 78.8581 76.9245 79.4095 76.9869 79.9529L77.7848 86.9185C77.8468 87.4619 78.0064 87.9867 78.2543 88.4627C78.5022 88.9388 78.8336 89.3569 79.2296 89.693C79.6256 90.0292 80.0783 90.2769 80.562 90.4219C81.0456 90.5669 81.5507 90.6065 82.0484 90.5382L102.479 87.748C103.483 87.6094 104.397 87.0415 105.018 86.1688C105.64 85.2961 105.919 84.1898 105.794 83.0927L104.996 76.1292C104.88 75.1216 104.431 74.1947 103.734 73.5222C103.037 72.8497 102.139 72.4775 101.209 72.4753Z" fill="#0C0C0C"/>
</svg>
