<svg width="120" height="143" viewBox="0 0 120 143" fill="none" xmlns="http://www.w3.org/2000/svg">
<path opacity="0.2" d="M53.525 135.722C83.086 135.722 107.05 111.331 107.05 81.2436C107.05 51.1563 83.086 26.7656 53.525 26.7656C23.9639 26.7656 0 51.1563 0 81.2436C0 111.331 23.9639 135.722 53.525 135.722Z" fill="white"/>
<path d="M4.17058 126.936C1.88095 121.913 0.693703 116.443 0.69141 110.906C0.689116 105.369 1.87183 99.8977 4.1573 94.873C6.44277 89.8483 9.77615 85.3906 13.9256 81.8099C18.0751 78.2291 22.9411 75.6113 28.1853 74.1384L31.3702 85.8574C27.7978 86.8596 24.4828 88.6419 21.6558 91.0802C18.8288 93.5186 16.5576 96.5545 15.0002 99.9768C13.4428 103.399 12.6366 107.126 12.6377 110.897C12.6388 114.669 13.4471 118.395 15.0064 121.816L4.17058 126.936Z" fill="#CAA033"/>
<path d="M4.79513 143C4.13346 143.001 3.48457 142.815 2.92036 142.463C2.35615 142.111 1.89864 141.607 1.59853 141.007C0.760009 139.331 0.254039 137.503 0.109512 135.628C-0.0350162 133.753 0.184728 131.868 0.756199 130.079C1.91034 126.467 4.42707 123.469 7.75274 121.745C9.39944 120.892 11.1952 120.377 13.0374 120.23C14.8797 120.083 16.7323 120.306 18.4897 120.888C22.0387 122.063 24.984 124.624 26.6774 128.009C26.8952 128.437 27.0277 128.903 27.0673 129.383C27.107 129.863 27.0529 130.346 26.9084 130.804C26.7638 131.262 26.5315 131.687 26.225 132.053C25.9184 132.42 25.5436 132.721 25.1221 132.94C24.7007 133.158 24.2409 133.289 23.7694 133.326C23.2978 133.363 22.8238 133.304 22.3746 133.154C21.9254 133.003 21.5099 132.763 21.1521 132.449C20.7943 132.134 20.5012 131.75 20.2898 131.32C19.8797 130.495 19.3138 129.761 18.6246 129.16C17.9354 128.558 17.1363 128.101 16.2733 127.814C15.4102 127.528 14.5001 127.417 13.5949 127.489C12.6898 127.56 11.8075 127.813 10.9984 128.233C10.1894 128.652 9.46956 129.229 8.88015 129.932C8.29074 130.635 7.84333 131.449 7.56353 132.328C7.28372 133.208 7.17703 134.134 7.24955 135.055C7.32207 135.976 7.57239 136.874 7.98617 137.696C8.26406 138.252 8.39728 138.871 8.37312 139.495C8.34896 140.118 8.16822 140.725 7.84817 141.257C7.52811 141.789 7.07941 142.228 6.54492 142.533C6.01043 142.839 5.40799 142.999 4.79513 143V143Z" fill="#292A2E"/>
<path d="M97.429 80.8791C92.3947 85.2552 86.3034 88.1834 79.7849 89.3609L77.6816 77.3909C83.4774 76.3277 88.7333 73.2567 92.5578 68.6987C96.3823 64.1407 98.5398 58.3764 98.6644 52.3838L110.608 52.6373C110.423 62.403 106.546 71.7203 99.7847 78.6515C99.0264 79.4313 98.2412 80.1739 97.429 80.8791Z" fill="#CAA033"/>
<path d="M114.042 52.2897C112.009 54.0475 109.527 55.1811 106.886 55.5583C104.244 55.9356 101.552 55.5409 99.1219 54.4203C96.6923 53.2997 94.6256 51.4994 93.1628 49.2291C91.6999 46.9589 90.9011 44.3122 90.8595 41.5976C90.8503 40.6338 91.2162 39.7055 91.8773 39.0154C92.5383 38.3253 93.4408 37.9296 94.3877 37.9145C95.3345 37.8995 96.2487 38.2665 96.9305 38.9353C97.6124 39.6041 98.0065 40.5203 98.0268 41.4839C98.0552 43.3472 98.8098 45.1227 100.124 46.4198C101.439 47.7169 103.206 48.4293 105.037 48.4003C106.867 48.3714 108.612 47.6034 109.886 46.2654C111.161 44.9273 111.861 43.1288 111.832 41.2655C111.817 40.2982 112.181 39.3645 112.842 38.6699C113.504 37.9752 114.41 37.5765 115.36 37.5615C116.31 37.5464 117.228 37.9163 117.91 38.5896C118.593 39.263 118.984 40.1848 118.999 41.1521C119.033 43.0334 118.7 44.9028 118.019 46.6521C117.338 48.4014 116.323 49.996 115.033 51.3434C114.716 51.6766 114.385 51.992 114.042 52.2897Z" fill="#292A2E"/>
<path d="M88.4776 0.278616L85.2267 9.87443C85.206 9.93558 85.1997 10.0008 85.2083 10.0649C85.217 10.129 85.2403 10.1901 85.2764 10.2433C85.3125 10.2965 85.3604 10.3404 85.4162 10.3713C85.4721 10.4022 85.5342 10.4193 85.5978 10.4213L87.791 10.4879C87.8554 10.4898 87.9183 10.5073 87.9747 10.539C88.0311 10.5706 88.0792 10.6155 88.1152 10.6698C88.1511 10.7242 88.1738 10.7865 88.1815 10.8515C88.1891 10.9166 88.1813 10.9826 88.1589 11.044L84.5409 20.9577C84.5071 21.0505 84.5072 21.1525 84.5412 21.2452C84.5751 21.3379 84.6406 21.4151 84.7258 21.4627C84.811 21.5103 84.9102 21.5252 85.0052 21.5047C85.1003 21.4841 85.1849 21.4295 85.2437 21.3507L93.7624 9.92328C93.8001 9.87265 93.8259 9.81383 93.8376 9.7514C93.8493 9.68898 93.8467 9.62464 93.83 9.56341C93.8133 9.50218 93.7829 9.4457 93.7412 9.39839C93.6995 9.35108 93.6476 9.31421 93.5896 9.29066L91.0382 8.25454C90.9883 8.23428 90.9429 8.20412 90.9045 8.16582C90.8662 8.12752 90.8357 8.08185 90.8149 8.03145C90.794 7.98105 90.7832 7.92694 90.7831 7.87226C90.783 7.81759 90.7936 7.76344 90.8143 7.71296L93.6753 0.717652C93.7005 0.656 93.7106 0.589045 93.7048 0.522535C93.699 0.456025 93.6774 0.391949 93.6419 0.335807C93.6063 0.279666 93.558 0.233137 93.5009 0.200217C93.4438 0.167296 93.3797 0.148967 93.3142 0.146804L88.8739 0.000458794C88.7873 -0.00238515 88.7021 0.0230933 88.6308 0.0731552C88.5594 0.123217 88.5058 0.195226 88.4776 0.278616Z" fill="#CAA033"/>
<path d="M5.44316 44.3178L9.23116 51.8159C9.25521 51.8637 9.2679 51.9166 9.26821 51.9703C9.26852 52.024 9.25644 52.077 9.23294 52.1251C9.20944 52.1732 9.17518 52.215 9.13292 52.2472C9.09065 52.2793 9.04157 52.3009 8.9896 52.3103L7.19417 52.629C7.14152 52.6384 7.09182 52.6604 7.04918 52.6933C7.00653 52.7261 6.97217 52.7688 6.94892 52.8177C6.92568 52.8667 6.91421 52.9207 6.91547 52.9751C6.91673 53.0295 6.93069 53.0828 6.95618 53.1306L11.0835 60.8457C11.1214 60.9179 11.1326 61.0015 11.1152 61.0814C11.0979 61.1613 11.053 61.2322 10.9888 61.2814C10.9246 61.3306 10.8452 61.3549 10.7649 61.3497C10.6847 61.3446 10.6089 61.3105 10.5512 61.2535L2.2192 52.8837C2.18239 52.8466 2.15448 52.8014 2.13765 52.7515C2.12081 52.7016 2.11549 52.6485 2.12211 52.5961C2.12873 52.5438 2.1471 52.4938 2.17581 52.4499C2.20451 52.406 2.24277 52.3694 2.28762 52.343L4.26492 51.1839C4.30354 51.1612 4.33736 51.1309 4.3644 51.0948C4.39143 51.0587 4.41116 51.0174 4.42243 50.9735C4.4337 50.9296 4.43629 50.8838 4.43006 50.8388C4.42382 50.7939 4.40888 50.7506 4.38609 50.7116L1.22084 45.3047C1.19312 45.257 1.17715 45.2032 1.17429 45.1479C1.17143 45.0926 1.18177 45.0374 1.20441 44.9871C1.22705 44.9367 1.26133 44.8927 1.30432 44.8588C1.34731 44.8248 1.39774 44.802 1.45129 44.7922L5.08519 44.1375C5.15594 44.1248 5.22883 44.1355 5.29322 44.1679C5.35762 44.2003 5.41015 44.2528 5.44316 44.3178Z" fill="#292A2E"/>
<path d="M20.1621 74.7765L28.0818 120.365C29.1055 126.258 32.1359 131.596 36.641 135.441C41.1461 139.287 46.8381 141.395 52.7181 141.395C58.4506 141.395 64.0094 139.392 68.4643 135.72C72.9192 132.048 76 126.93 77.1913 121.223L86.8862 74.7759L20.1621 74.7765Z" fill="#CAA033"/>
<path d="M53.524 84.8159C71.9493 84.8159 86.886 80.3211 86.886 74.7766C86.886 69.2321 71.9493 64.7373 53.524 64.7373C35.0988 64.7373 20.1621 69.2321 20.1621 74.7766C20.1621 80.3211 35.0988 84.8159 53.524 84.8159Z" fill="#292A2E"/>
<path d="M65.3955 100.537H42.0442C39.8322 100.537 38.0391 102.362 38.0391 104.614V116.111C38.0391 118.363 39.8322 120.188 42.0442 120.188H65.3955C67.6075 120.188 69.4007 118.363 69.4007 116.111V104.614C69.4007 102.362 67.6075 100.537 65.3955 100.537Z" fill="#292A2E"/>
<path d="M51.1891 110.729H49.8008C49.8008 108.868 50.6294 106.302 54.577 104.652C56.8895 103.685 56.124 100.113 56.1156 100.077L57.4688 99.761C57.5128 99.9554 58.5078 104.536 55.1046 105.958C52.5063 107.044 51.1891 108.65 51.1891 110.729Z" fill="#929292"/>
<path d="M63.6435 121.014C62.2935 118.438 61.7301 118.489 59.3543 118.703C58.5809 118.773 57.6186 118.861 56.4437 118.861C51.1851 118.861 50.638 114.965 50.6328 114.926L52.0098 114.748L51.3212 114.837L52.009 114.741C52.0249 114.852 52.4453 117.448 56.4433 117.448C57.5565 117.448 58.4464 117.367 59.231 117.296C61.9038 117.054 63.1578 117.085 64.8679 120.349L63.6435 121.014Z" fill="#929292"/>
<path d="M47.5986 111.454C47.5511 111.454 47.5044 111.442 47.4623 111.42L45.9618 110.632C45.8917 110.596 45.8388 110.532 45.8148 110.455C45.7909 110.379 45.7977 110.296 45.834 110.224C45.8702 110.153 45.9328 110.099 46.0079 110.075C46.0831 110.05 46.1648 110.057 46.2349 110.094L47.7354 110.882C47.7948 110.913 47.8422 110.963 47.87 111.025C47.8977 111.087 47.9042 111.156 47.8884 111.222C47.8726 111.289 47.8354 111.347 47.7828 111.389C47.7303 111.431 47.6654 111.454 47.5986 111.454Z" fill="white"/>
<path d="M45.7849 114.45C45.7155 114.45 45.6483 114.425 45.5951 114.38C45.5418 114.335 45.5058 114.272 45.4932 114.202C45.4806 114.133 45.4923 114.061 45.5262 113.999C45.5602 113.938 45.6142 113.89 45.679 113.865L47.257 113.253C47.3297 113.229 47.4088 113.234 47.4779 113.268C47.547 113.301 47.6007 113.36 47.628 113.433C47.6553 113.506 47.6539 113.587 47.6243 113.658C47.5947 113.73 47.539 113.788 47.4688 113.819L45.8908 114.43C45.857 114.443 45.8211 114.45 45.7849 114.45Z" fill="white"/>
<path d="M55.2756 113.206C55.201 113.206 55.1292 113.177 55.0744 113.126C55.0196 113.074 54.9857 113.004 54.9795 112.928C54.9734 112.852 54.9953 112.777 55.041 112.717C55.0867 112.657 55.1529 112.617 55.2264 112.604L56.8923 112.318C56.9699 112.305 57.0494 112.324 57.1134 112.37C57.1774 112.417 57.2206 112.487 57.2337 112.566C57.2468 112.645 57.2287 112.726 57.1833 112.792C57.1379 112.857 57.069 112.901 56.9915 112.915L55.3256 113.201C55.309 113.204 55.2923 113.206 55.2756 113.206Z" fill="white"/>
<path d="M54.0571 111.154C54.0039 111.154 53.9517 111.14 53.9059 111.112C53.8601 111.085 53.8224 111.045 53.7967 110.998C53.7711 110.95 53.7583 110.897 53.7599 110.843C53.7615 110.789 53.7772 110.736 53.8056 110.69L54.707 109.237C54.7274 109.202 54.7544 109.172 54.7864 109.149C54.8183 109.125 54.8546 109.108 54.8931 109.099C54.9316 109.089 54.9716 109.088 55.0106 109.094C55.0496 109.101 55.087 109.116 55.1204 109.137C55.1539 109.159 55.1828 109.187 55.2055 109.22C55.2282 109.253 55.2442 109.29 55.2525 109.329C55.2609 109.369 55.2614 109.409 55.2542 109.449C55.2469 109.488 55.2319 109.526 55.2101 109.56L54.3088 111.013C54.282 111.056 54.2448 111.092 54.2008 111.117C54.1568 111.141 54.1073 111.154 54.0571 111.154Z" fill="white"/>
<path d="M71.0363 109.672C68.1483 109.672 65.7389 108.869 63.8556 107.275C60.376 104.33 60.003 99.7845 59.9883 99.5926L61.3726 99.4866L60.6804 99.5397L61.3724 99.4856C61.3758 99.526 61.7262 103.644 64.7534 106.198C66.7367 107.87 69.4404 108.53 72.7947 108.158L72.945 109.563C72.3112 109.634 71.674 109.671 71.0363 109.672Z" fill="#929292"/>
<path d="M34.8443 118.454L34.5879 117.065C39.9103 116.046 39.9064 113.793 39.9018 111.183C39.8988 109.426 39.8952 107.434 41.9293 106.27C45.7123 104.103 45.4093 99.1937 45.4059 99.1441L46.7902 99.0381C46.8078 99.2757 47.1732 104.888 42.6099 107.501C41.3492 108.223 41.2869 109.369 41.2901 111.18C41.2948 113.87 41.3006 117.218 34.8443 118.454Z" fill="#929292"/>
<path d="M75.8704 77.9088C75.8437 77.9089 75.8172 77.9061 75.791 77.9007C74.2883 77.5931 71.4533 76.2859 71.4787 73.5374C71.4766 72.9987 71.6024 72.4674 71.8455 71.9888C72.0885 71.5102 72.4415 71.0984 72.8745 70.7886C72.4314 69.9527 72.3003 68.982 72.5054 68.0554C73.0722 65.0496 76.0455 64.523 77.5393 64.6655C77.6437 64.6758 77.7399 64.7277 77.8067 64.81C77.8736 64.8923 77.9057 64.9981 77.8961 65.1045C77.8864 65.2108 77.8358 65.3089 77.7552 65.3773C77.6747 65.4457 77.5708 65.4788 77.4663 65.4695C77.3197 65.4557 73.8568 65.174 73.2844 68.2076C73.1155 68.9398 73.2115 69.7094 73.5549 70.3754C75.0273 69.6523 77.0441 69.6487 77.9698 70.3691C78.1553 70.4983 78.2997 70.6799 78.3853 70.8914C78.4709 71.103 78.4939 71.3354 78.4516 71.5601C78.2663 72.5431 77.1327 73.0336 75.6972 72.753C74.7935 72.5852 73.9668 72.1261 73.339 71.4436C73.0067 71.6793 72.7358 71.9938 72.5499 72.36C72.364 72.7263 72.2686 73.1331 72.272 73.5453C72.2464 76.3107 75.911 77.1018 75.9479 77.1095C76.0444 77.1292 76.1303 77.1847 76.1889 77.2652C76.2474 77.3458 76.2744 77.4456 76.2647 77.5453C76.2549 77.645 76.2091 77.7374 76.1361 77.8046C76.0632 77.8719 75.9682 77.9091 75.8698 77.909L75.8704 77.9088ZM74.0541 71.0312C74.5545 71.5061 75.1762 71.8279 75.848 71.9597C76.7942 72.144 77.5795 71.907 77.6737 71.4075C77.6879 71.3299 77.6777 71.2497 77.6445 71.1784C77.6113 71.107 77.5569 71.0482 77.4889 71.0102C76.8902 70.5439 75.3294 70.468 74.0541 71.0312Z" fill="white"/>
<path d="M41.9673 74.8766C41.884 74.8766 41.8029 74.85 41.7353 74.8004C41.6678 74.7509 41.6173 74.681 41.591 74.6006C41.5646 74.5202 41.5638 74.4334 41.5886 74.3526C41.6135 74.2717 41.6627 74.2008 41.7293 74.15C41.8147 74.0844 43.8117 72.5174 42.6763 70.6161C42.4328 70.1724 42.0507 69.8243 41.5906 69.627C41.0948 70.7776 39.9737 71.7868 39.0931 71.8621C38.9076 71.8872 38.7189 71.8567 38.5501 71.7742C38.3814 71.6918 38.2399 71.5609 38.1432 71.3979C38.0345 71.2057 37.9795 70.987 37.9839 70.7653C37.9883 70.5437 38.052 70.3274 38.1681 70.1399C38.6102 69.3181 39.7097 68.7039 40.7821 68.6793C40.8713 68.6777 40.9606 68.6793 41.0478 68.6851C41.0976 68.4108 41.0839 68.1284 41.0078 67.8603C40.9317 67.5923 40.7954 67.346 40.6095 67.1409C39.3049 65.6458 36.9492 67.0471 36.9258 67.0614C36.8811 67.0885 36.8315 67.1064 36.78 67.114C36.7284 67.1217 36.6759 67.1189 36.6254 67.1059C36.5749 67.0929 36.5274 67.0698 36.4857 67.0381C36.4439 67.0064 36.4087 66.9667 36.382 66.9211C36.3554 66.8756 36.3378 66.8251 36.3303 66.7726C36.3228 66.7202 36.3255 66.6667 36.3383 66.6153C36.3511 66.5639 36.3738 66.5156 36.4049 66.4731C36.436 66.4306 36.4751 66.3947 36.5199 66.3676C36.6389 66.2952 39.4678 64.6161 41.2025 66.6046C41.4715 66.9039 41.6679 67.2631 41.7761 67.6535C41.8842 68.0439 41.901 68.4546 41.8253 68.8529C42.4704 69.1099 43.0098 69.5837 43.3541 70.1956C44.5639 72.2198 43.1312 74.089 42.2052 74.7947C42.1368 74.8477 42.0532 74.8765 41.9673 74.8766ZM40.7773 69.4885C39.914 69.5168 39.128 70.0372 38.8633 70.5291C38.8168 70.5933 38.7883 70.6692 38.7808 70.7486C38.7733 70.828 38.7871 70.9079 38.8206 70.98C38.8405 71.0141 38.8754 71.0696 39.0273 71.0583C39.5245 71.0163 40.341 70.3438 40.7769 69.4885H40.7773Z" fill="white"/>
<path d="M85.4007 41.2633C87.4313 55.8776 73.9574 64.9906 56.131 67.5562C38.3046 70.1218 22.8769 65.1693 20.8465 50.5539C18.816 35.9385 30.9517 17.195 48.7779 14.6294C66.6041 12.0639 83.3703 26.6479 85.4007 41.2633Z" fill="#CAA033"/>
<path d="M68.2995 25.6348L49.9398 28.277C44.1848 29.1052 40.1792 34.525 40.9929 40.3824C41.8066 46.2398 47.1316 50.3168 52.8865 49.4886L71.2462 46.8464C77.0012 46.0181 81.0068 40.5984 80.1931 34.741C79.3794 28.8836 74.0544 24.8066 68.2995 25.6348Z" fill="white"/>
<path d="M47.199 3.31969L45.7754 3.59741L48.5249 18.1981L49.9485 17.9204L47.199 3.31969Z" fill="#CAA033"/>
<path d="M46.6902 7.23482C48.1534 7.23482 49.3395 6.0276 49.3395 4.53843C49.3395 3.04926 48.1534 1.84204 46.6902 1.84204C45.2271 1.84204 44.041 3.04926 44.041 4.53843C44.041 6.0276 45.2271 7.23482 46.6902 7.23482Z" fill="#292A2E"/>
<path d="M56.6339 42.8287C56.3762 42.8288 56.1256 42.7433 55.9199 42.5852L48.1236 36.617C47.9965 36.5222 47.8891 36.4027 47.8078 36.2654C47.7264 36.1281 47.6726 35.9757 47.6495 35.8171C47.6265 35.6585 47.6346 35.4968 47.6734 35.3414C47.7123 35.186 47.781 35.0399 47.8757 34.9118C47.9704 34.7836 48.0892 34.6759 48.2251 34.5949C48.3611 34.5138 48.5115 34.461 48.6676 34.4396C48.8238 34.4181 48.9825 34.4285 49.1347 34.47C49.2869 34.5115 49.4294 34.5834 49.5541 34.6814L57.3501 40.6501C57.55 40.8027 57.6977 41.0155 57.7721 41.2584C57.8465 41.5012 57.8439 41.7618 57.7646 42.003C57.6854 42.2443 57.5335 42.454 57.3305 42.6025C57.1276 42.7509 56.8838 42.8306 56.6339 42.8301V42.8287Z" fill="#292A2E"/>
<path d="M49.8042 43.8116C49.5832 43.8114 49.3665 43.7486 49.1786 43.6301C48.9907 43.5116 48.8389 43.3422 48.7403 43.1409C48.6416 42.9395 48.6 42.7142 48.6202 42.4902C48.6403 42.2661 48.7214 42.0522 48.8543 41.8724L54.7189 33.9374C54.9097 33.6836 55.1912 33.5169 55.5022 33.4734C55.8133 33.43 56.1285 33.5134 56.3794 33.7055C56.6303 33.8976 56.7964 34.1828 56.8416 34.499C56.8868 34.8152 56.8074 35.1367 56.6206 35.3936L50.7562 43.3286C50.6453 43.4788 50.5015 43.6007 50.3363 43.6845C50.171 43.7684 49.9889 43.8119 49.8042 43.8116Z" fill="#292A2E"/>
<path d="M73.5641 40.3918C73.3065 40.3918 73.0558 40.3064 72.8502 40.1483L65.0542 34.1795C64.9284 34.0842 64.8223 33.9646 64.742 33.8275C64.6617 33.6904 64.6088 33.5385 64.5864 33.3805C64.564 33.2225 64.5725 33.0616 64.6114 32.9069C64.6504 32.7523 64.7189 32.607 64.8132 32.4795C64.9075 32.3519 65.0256 32.2446 65.1607 32.1636C65.2959 32.0827 65.4455 32.0297 65.6008 32.0078C65.7561 31.9859 65.9142 31.9954 66.0659 32.0359C66.2176 32.0764 66.36 32.147 66.4848 32.2437L74.2807 38.2125C74.4806 38.3652 74.6283 38.578 74.7027 38.8208C74.7771 39.0637 74.7745 39.3242 74.6953 39.5655C74.616 39.8067 74.4641 40.0165 74.2612 40.1649C74.0582 40.3134 73.8145 40.393 73.5645 40.3926L73.5641 40.3918Z" fill="#292A2E"/>
<path d="M66.7341 41.3751C66.5131 41.3749 66.2964 41.3121 66.1084 41.1937C65.9205 41.0752 65.7687 40.9058 65.67 40.7045C65.5713 40.5031 65.5297 40.2777 65.5499 40.0537C65.57 39.8296 65.6511 39.6157 65.784 39.4359L71.6484 31.5009C71.8381 31.2442 72.1203 31.0747 72.4328 31.0298C72.7453 30.9848 73.0625 31.068 73.3147 31.2611C73.5669 31.4542 73.7335 31.7414 73.7776 32.0594C73.8218 32.3775 73.7401 32.7004 73.5503 32.9571L67.6859 40.892C67.575 41.0423 67.4313 41.1642 67.2661 41.248C67.1009 41.3319 66.9187 41.3754 66.7341 41.3751Z" fill="#292A2E"/>
<path d="M62.2414 52.8014C62.5995 52.3188 63.085 51.9498 63.6413 51.7372C64.1976 51.5247 64.8018 51.4774 65.3835 51.601C65.9652 51.7245 66.5004 52.0138 66.9267 52.435C67.3531 52.8563 67.6531 53.3922 67.7917 53.9803C67.8169 54.0843 67.8216 54.1924 67.8056 54.2983C67.7896 54.4042 67.7532 54.5059 67.6984 54.5974C67.6437 54.6889 67.5717 54.7685 67.4866 54.8316C67.4015 54.8947 67.305 54.9401 67.2026 54.965C67.1002 54.99 66.994 54.9942 66.89 54.9772C66.786 54.9602 66.6864 54.9225 66.5968 54.8662C66.5073 54.8099 66.4295 54.7361 66.3681 54.6491C66.3066 54.562 66.2627 54.4635 66.2388 54.3591C66.1917 54.1593 66.1064 53.9708 65.9877 53.8044C65.8691 53.6381 65.7194 53.4972 65.5472 53.3897C65.3751 53.2823 65.1838 53.2104 64.9844 53.1782C64.7849 53.146 64.5812 53.1541 64.3848 53.202C64.1884 53.2499 64.0032 53.3368 63.8398 53.4575C63.6764 53.5783 63.5379 53.7306 63.4323 53.9059C63.3268 54.0811 63.2561 54.2758 63.2245 54.4788C63.1928 54.6818 63.2008 54.8892 63.2479 55.089C63.2957 55.2981 63.2604 55.5179 63.1495 55.7005C63.0387 55.8831 62.8614 56.0137 62.6564 56.0637C62.4513 56.1137 62.2351 56.0792 62.055 55.9675C61.8749 55.8559 61.7455 55.6763 61.695 55.4679C61.598 55.0605 61.5814 54.6376 61.6461 54.2236C61.7108 53.8097 61.8555 53.4128 62.0718 53.0562C62.1244 52.9681 62.181 52.8832 62.2414 52.8014Z" fill="#292A2E"/>
</svg>
